<?xml version="1.0" encoding="UTF-8" standalone="no"?>
<svg
   xmlns="http://www.w3.org/2000/svg"
   width="90"
   height="90"
   id="svg2562">
  <g
     id="layer1">
    <path
       style="opacity:0.71538463;fill:#000000;fill-opacity:1;fill-rule:nonzero;stroke:none;"
       d="M 11.930261,10 L 11.930261,80 L 21.930262,80 L 21.930262,20 L 81.930261,20 L 81.930261,10 L 21.930262,10 L 11.930261,10 z M 31.930262,30 L 31.930262,60 L 41.930261,60 L 41.930261,30 L 31.930262,30 z M 51.930261,30 L 51.930261,70 L 31.930262,70 L 31.930262,80 L 51.930261,80 L 61.930261,80 L 61.930261,30 L 51.930261,30 z M 71.930261,30 L 71.930261,60 L 81.930261,60 L 81.930261,30 L 71.930261,30 z"
       id="path4268"/>
    <path
       style="fill:#65a4e3;fill-opacity:1;fill-rule:nonzero;stroke:#000000;"
       d="M 10.197491,8.5032996 L 10.197491,78.5033 L 20.197492,78.5033 L 20.197492,18.5033 L 80.197491,18.5033 L 80.197491,8.5032996 L 20.197492,8.5032996 L 10.197491,8.5032996 z M 30.197492,28.5033 L 30.197492,58.5033 L 40.197491,58.5033 L 40.197491,28.5033 L 30.197492,28.5033 z M 50.197491,28.5033 L 50.197491,68.5033 L 30.197492,68.5033 L 30.197492,78.5033 L 50.197491,78.5033 L 60.197491,78.5033 L 60.197491,28.5033 L 50.197491,28.5033 z M 70.197491,28.5033 L 70.197491,58.5033 L 80.197491,58.5033 L 80.197491,28.5033 L 70.197491,28.5033 z"
       id="path4270"/>
  </g>
</svg>
